<svg xmlns="http://www.w3.org/2000/svg" viewBox="0 0 48 48" width="48" height="48">
  <title>WaffleHouse Menu</title>
  <rect width="48" height="48" rx="12" fill="#0B0B0E"/>
  <rect x="6" y="6" width="36" height="36" rx="9" fill="#FFC72C"/>
  <rect x="6.75" y="6.75" width="34.5" height="34.5" rx="8.25" fill="none" stroke="#FFE07A" stroke-width="1.5"/>
  <rect x="11" y="11" width="7" height="7" rx="1.8" fill="#D99A00"/>
  <rect x="20.5" y="11" width="7" height="7" rx="1.8" fill="#D99A00"/>
  <rect x="30" y="11" width="7" height="7" rx="1.8" fill="#D99A00"/>
  <rect x="11" y="20.5" width="7" height="7" rx="1.8" fill="#D99A00"/>
  <rect x="20.5" y="20.5" width="7" height="7" rx="1.8" fill="#D99A00"/>
  <rect x="30" y="20.5" width="7" height="7" rx="1.8" fill="#D99A00"/>
  <rect x="11" y="30" width="7" height="7" rx="1.8" fill="#D99A00"/>
  <rect x="20.5" y="30" width="7" height="7" rx="1.8" fill="#D99A00"/>
  <rect x="30" y="30" width="7" height="7" rx="1.8" fill="#D99A00"/>
  <g transform="rotate(-8 24 24)">
    <rect x="17.2" y="18.6" width="14" height="11.6" rx="2.8" fill="#8A5A00" opacity=".35"/>
    <rect x="16.2" y="17.2" width="14" height="11.6" rx="2.8" fill="#FFF6C9"/>
    <rect x="18" y="18.8" width="6" height="1.6" rx=".8" fill="#fff" opacity=".9"/>
  </g>
</svg>
